<?xml version="1.0" standalone="no"?>
<!DOCTYPE svg PUBLIC "-//W3C//DTD SVG 20010904//EN"
 "http://www.w3.org/TR/2001/REC-SVG-20010904/DTD/svg10.dtd">
<svg version="1.0" xmlns="http://www.w3.org/2000/svg"
 width="640.000000pt" height="640.000000pt" viewBox="0 0 640.000000 640.000000"
 preserveAspectRatio="xMidYMid meet">
<metadata>
Created by potrace 1.11, written by Peter Selinger 2001-2013
</metadata>
<g transform="translate(0.000000,640.000000) scale(0.100000,-0.100000)"
fill="#000000" stroke="none">
<path d="M3494 6312 l-172 -2 -4 -30 c-3 -17 -2 -30 2 -30 4 0 4 -20 0 -45 -4
-25 -3 -48 2 -51 4 -3 6 -9 3 -15 -3 -5 -6 -32 -6 -61 1 -105 8 -573 10 -578
0 -3 381 -5 846 -5 935 0 856 6 834 -65 -5 -19 -12 -46 -15 -60 -3 -14 -8 -34
-11 -45 -9 -26 -11 -34 -18 -70 -3 -16 -12 -55 -20 -85 -7 -30 -16 -71 -19
-91 -3 -20 -8 -42 -10 -50 -3 -8 -7 -30 -10 -49 -3 -19 -8 -45 -10 -56 -2 -12
-7 -37 -10 -55 -3 -19 -8 -45 -10 -59 -5 -25 -20 -137 -31 -220 -4 -25 -8 -56
-10 -70 -2 -14 -7 -50 -10 -80 -4 -30 -9 -67 -10 -81 -2 -14 -7 -59 -10 -100
-4 -41 -9 -87 -11 -104 -3 -16 -7 -141 -10 -277 l-5 -248 455 0 456 0 1 28 c3
125 14 325 24 437 3 33 7 83 9 110 2 28 7 73 11 100 3 28 11 86 16 130 16 127
19 149 25 173 3 13 7 43 10 65 5 35 18 105 60 317 3 14 16 73 30 133 14 59 27
113 28 120 2 6 5 19 9 27 6 17 39 140 41 155 1 6 5 16 9 23 5 6 6 12 2 12 -3
0 1 16 9 35 8 19 12 35 9 35 -3 0 0 7 7 15 7 8 10 15 7 15 -3 0 19 71 49 158
30 86 56 162 57 167 12 44 154 394 168 411 6 8 2 14 -13 18 -22 6 -2388 4
-2764 -2z"/>
<path d="M2217 4625 c-1 -2 -49 -6 -106 -10 -57 -3 -111 -8 -120 -10 -9 -1
-36 -6 -61 -10 -94 -14 -106 -16 -150 -26 -25 -6 -56 -13 -70 -15 -27 -5 -165
-42 -190 -52 -8 -3 -17 -6 -20 -7 -3 -1 -18 -7 -33 -13 -16 -7 -33 -12 -39
-12 -5 0 -22 -6 -36 -14 -15 -8 -63 -31 -107 -51 -97 -46 -251 -135 -322 -187
-29 -21 -55 -38 -58 -38 -3 0 -13 -8 -24 -17 -10 -10 -28 -25 -39 -33 -102
-76 -261 -236 -352 -353 -202 -260 -374 -675 -415 -1002 -3 -22 -8 -51 -11
-65 -5 -29 -12 -86 -20 -185 -5 -62 -8 -350 -4 -350 1 0 3 -16 5 -35 4 -56 16
-151 30 -240 9 -59 78 -316 87 -327 6 -7 8 -13 5 -13 -11 0 75 -207 131 -315
177 -343 434 -620 769 -827 111 -68 271 -147 378 -184 28 -10 56 -22 63 -27 6
-5 12 -7 12 -4 0 4 19 0 42 -9 51 -18 229 -60 283 -67 22 -3 47 -8 55 -11 72
-25 547 -40 715 -23 113 12 140 15 202 26 32 6 69 12 83 15 14 2 45 9 70 16
25 7 56 14 70 16 53 9 250 78 350 122 190 84 324 168 458 289 l36 32 -35 50
c-18 28 -37 51 -41 51 -5 0 -8 5 -8 10 0 6 -5 16 -10 23 -6 7 -27 34 -48 62
-20 27 -41 55 -47 61 -5 7 -35 46 -65 88 -30 42 -99 136 -153 209 -54 73 -106
143 -115 155 -9 13 -29 39 -43 57 l-26 34 -74 -54 c-41 -30 -79 -55 -86 -55
-6 0 -13 -4 -15 -9 -7 -18 -247 -126 -328 -147 -123 -32 -155 -38 -255 -51
-102 -12 -306 -6 -390 12 -11 3 -31 7 -45 9 -442 75 -770 357 -914 787 -14 41
-27 85 -29 99 -3 14 -10 43 -16 65 -31 116 -34 418 -6 545 7 28 13 60 19 93 2
12 9 36 16 52 6 17 11 31 10 33 -3 7 45 125 80 197 88 178 261 363 425 457 67
39 215 107 243 113 9 2 44 11 77 19 177 48 413 56 600 22 34 -7 119 -27 135
-33 8 -3 21 -7 27 -9 78 -16 428 -185 463 -223 8 -10 49 -31 58 -31 5 0 24 21
43 48 18 26 37 52 41 57 5 6 40 53 79 105 39 52 76 102 82 110 7 9 28 38 46
65 19 28 38 52 41 55 3 3 43 57 89 120 46 63 87 117 90 120 3 3 22 28 40 55
19 28 39 53 44 56 4 3 -15 26 -44 50 -28 24 -57 49 -63 54 -10 9 -93 65 -196
131 -67 44 -269 134 -377 169 -169 55 -168 55 -303 80 -14 3 -36 7 -50 10 -56
10 -117 18 -152 19 -21 1 -38 3 -38 6 0 3 -21 6 -48 7 -76 4 -392 10 -395 8z"/>
</g>
</svg>
